<?xml version="1.0" standalone="no"?>
<!DOCTYPE svg PUBLIC "-//W3C//DTD SVG 20010904//EN" "http://www.w3.org/TR/2001/REC-SVG-20010904/DTD/svg10.dtd">
<!-- Created using Karbon, part of Calligra: http://www.calligra.org/karbon -->
<svg xmlns="http://www.w3.org/2000/svg" xmlns:xlink="http://www.w3.org/1999/xlink" width="368.238pt" height="368.238pt">
<defs/>
<g id="layer0">
  <g id="group0" transform="translate(-0.623957, 46.369)" fill="none">
   <path id="shape0" transform="matrix(1 0 0 1 66.322 74.57)" fill="#ffffff" d="M164.451 0L0.288 135.335C0.288 135.526 0.24 135.807 0.144 136.19C0.05 136.57 0 136.846 0 137.042L0 274.083C0 279.031 1.809 283.319 5.426 286.93C9.042 290.543 13.324 292.361 18.273 292.361L127.903 292.361L127.903 182.725L201 182.725L201 292.365L310.629 292.365C315.577 292.365 319.865 290.551 323.476 286.93C327.093 283.323 328.908 279.032 328.908 274.083L328.908 137.042C328.908 136.282 328.804 135.708 328.62 135.335Z"/>
   <path id="shape1" transform="matrix(1 0 0 1 0.6234 0.625)" fill="#ffffff" d="M457.123 178.444L394.601 126.482L394.601 9.995C394.601 7.332 393.745 5.142 392.027 3.428C390.323 1.716 388.133 0.86 385.464 0.86L330.648 0.86C327.982 0.86 325.793 1.716 324.078 3.428C322.367 5.142 321.512 7.333 321.512 9.995L321.512 65.668L251.85 7.423C245.766 2.474 238.532 0 230.156 0C221.781 0 214.548 2.474 208.458 7.423L3.17256 178.444C1.26956 179.964 0.226557 182.01 0.0325575 184.58C-0.160443 187.148 0.504557 189.391 2.02956 191.293L19.7306 212.421C21.2556 214.133 23.2516 215.18 25.7266 215.563C28.0116 215.755 30.2966 215.087 32.5816 213.565L230.15 48.823L427.72 213.564C429.246 214.892 431.241 215.555 433.716 215.555L434.574 215.555C437.045 215.179 439.037 214.125 440.57 212.417L458.273 191.292C459.795 189.386 460.462 187.147 460.264 184.576C460.069 182.013 459.022 179.967 457.123 178.444Z"/>
  </g>
 </g><g id="layer1"/><g id="layer2"/><g id="layer3"/><g id="layer4"/><g id="layer5"/><g id="layer6"/><g id="layer7"/><g id="layer8"/><g id="layer9"/><g id="layer10"/><g id="layer11"/><g id="layer12"/><g id="layer13"/><g id="layer14"/><g id="layer15"/>
</svg>
