<?xml version="1.0" standalone="no"?>
<!DOCTYPE svg PUBLIC "-//W3C//DTD SVG 20010904//EN" "http://www.w3.org/TR/2001/REC-SVG-20010904/DTD/svg10.dtd">
<!-- Created using Karbon, part of Calligra: http://www.calligra.org/karbon -->
<svg xmlns="http://www.w3.org/2000/svg" xmlns:xlink="http://www.w3.org/1999/xlink" width="550pt" height="841pt">
<defs/>
<g id="layer0">
  <g id="group0" transform="translate(-0.839233, -1.28326)" fill="none">
   <g id="group1" transform="" fill="none">
    <path id="shape0" transform="matrix(1.34277 0 0 2.05322 126.88 491.866)" fill="#ffffff" d="M42.667 0L25.6 0C11.468 0.015 0.015 11.468 0 25.6L0 42.667C0.015 56.799 11.468 68.252 25.6 68.267L42.667 68.267C56.799 68.252 68.252 56.799 68.267 42.667L68.267 25.6C68.252 11.468 56.799 0.016 42.667 0ZM51.201 42.667C51.196 47.378 47.379 51.196 42.668 51.2L25.601 51.2C20.89 51.195 17.072 47.378 17.068 42.667L17.068 25.6C17.073 20.889 20.89 17.071 25.601 17.067L42.668 17.067C47.379 17.072 51.197 20.889 51.201 25.6Z"/>
    <path id="shape1" transform="matrix(1.34277 0 0 2.05322 310.214 491.866)" fill="#ffffff" d="M42.667 0L25.6 0C11.468 0.015 0.015 11.468 0 25.6L0 42.667C0.015 56.799 11.468 68.252 25.6 68.267L42.667 68.267C56.799 68.252 68.252 56.799 68.267 42.667L68.267 25.6C68.251 11.468 56.799 0.016 42.667 0ZM51.2 42.667C51.195 47.378 47.377 51.196 42.667 51.2L25.6 51.2C20.889 51.195 17.071 47.378 17.067 42.667L17.067 25.6C17.072 20.889 20.889 17.071 25.6 17.067L42.667 17.067C47.378 17.072 51.196 20.889 51.2 25.6Z"/>
    <path id="shape2" transform="matrix(1.34277 0 0 2.05322 0.839233 211.537)" fill="#ffffff" d="M349.867 154.369L349.867 136.532C349.847 117.689 334.577 102.419 315.734 102.399L235.82 102.399L245.57 95.3074C247.59 93.8414 248.866 91.5634 249.062 89.0754C249.258 86.5874 248.353 84.1384 246.587 82.3744L196.032 31.8154C194.834 13.6274 179.527 -0.392609 161.304 0.00839062C143.081 0.409391 128.405 15.0884 128.008 33.3124C127.611 51.5354 141.635 66.8394 159.823 68.0334L179.188 87.3414L158.204 102.398L76.8 102.398C57.957 102.418 42.687 117.688 42.667 136.531L42.667 154.368C18.038 158.505 0 179.825 0 204.798C0 229.771 18.038 251.091 42.667 255.227L42.667 273.064C42.687 291.907 57.957 307.177 76.8 307.197L138.106 307.197C134.81 316.004 136.78 325.918 143.192 332.797C136.779 339.676 134.81 349.59 138.107 358.397L76.8 358.397C57.957 358.417 42.687 373.687 42.667 392.53L42.667 401.063C42.666 403.326 43.565 405.497 45.166 407.098C46.766 408.698 48.937 409.597 51.201 409.597L340.622 409.597C340.749 409.597 340.853 409.53 340.978 409.525C341.103 409.53 341.208 409.597 341.334 409.597C343.597 409.598 345.768 408.699 347.369 407.098C348.969 405.498 349.868 403.327 349.868 401.063L349.868 392.53C349.848 373.687 334.578 358.417 315.735 358.397L254.429 358.397C257.725 349.59 255.755 339.676 249.343 332.797C255.755 325.918 257.725 316.004 254.429 307.197L315.735 307.197C334.578 307.177 349.848 291.907 349.868 273.064L349.868 255.227C374.496 251.091 392.535 229.771 392.535 204.798C392.535 179.825 374.495 158.505 349.867 154.369ZM42.667 237.719C27.609 233.892 17.067 220.335 17.067 204.798C17.067 189.261 27.609 175.705 42.667 171.877ZM191.436 51.3524L227.458 87.3814L206.805 102.398L187.48 102.398L197.316 95.3404C199.352 93.8784 200.643 91.5944 200.845 89.0964C201.047 86.5984 200.14 84.1364 198.365 82.3654L179.37 63.4244C184.35 60.4864 188.501 56.3324 191.436 51.3524ZM162.133 51.1984C152.707 51.1984 145.066 43.5574 145.066 34.1314C145.066 24.7054 152.707 17.0644 162.133 17.0644C171.559 17.0644 179.2 24.7054 179.2 34.1314C179.189 43.5534 171.555 51.1874 162.133 51.1984ZM315.733 375.465C325.154 375.476 332.789 383.11 332.8 392.532L59.733 392.532C59.744 383.111 67.378 375.476 76.8 375.465ZM162.133 324.265C157.42 324.265 153.6 320.445 153.6 315.732C153.6 311.019 157.42 307.199 162.133 307.199L230.4 307.199C235.113 307.199 238.933 311.019 238.933 315.732C238.933 320.445 235.113 324.265 230.4 324.265C225.687 324.265 221.867 328.085 221.867 332.798C221.867 337.511 225.687 341.331 230.4 341.331C235.113 341.331 238.933 345.152 238.933 349.864C238.933 354.577 235.113 358.397 230.4 358.397L162.133 358.397C157.42 358.397 153.6 354.576 153.6 349.864C153.6 345.151 157.42 341.331 162.133 341.331C166.846 341.331 170.666 337.511 170.666 332.798C170.666 328.085 166.846 324.265 162.133 324.265ZM281.6 290.131L110.933 290.131L110.933 273.064L281.6 273.064ZM281.6 255.998L110.933 255.998L110.933 247.465C110.938 242.754 114.755 238.936 119.466 238.932L273.066 238.932C277.777 238.937 281.595 242.754 281.599 247.465L281.599 255.998ZM332.8 273.065C332.789 282.486 325.155 290.121 315.733 290.132L298.666 290.132L298.666 247.465C298.651 233.333 287.198 221.88 273.066 221.865L119.466 221.865C105.334 221.88 93.881 233.333 93.866 247.465L93.866 290.132L76.8 290.132C67.379 290.121 59.744 282.487 59.733 273.065L59.733 136.531C59.744 127.11 67.378 119.475 76.8 119.464L315.733 119.464C325.154 119.475 332.789 127.109 332.8 136.531ZM349.867 237.719L349.867 171.877C364.925 175.704 375.467 189.261 375.467 204.798C375.467 220.335 364.925 233.891 349.867 237.719Z"/>
    <path id="shape3" transform="matrix(1.34277 0 0 2.05322 401.88 1.28326)" fill="#ffffff" d="M196.267 0L17.067 0C7.646 0.011 0.011 7.645 0 17.067L0 170.65C0.011 180.071 7.645 187.706 17.067 187.717L110.934 187.717L110.934 230.384C110.859 237.756 115.591 244.318 122.609 246.576C129.805 249.023 137.749 246.367 142.026 240.084L175.351 187.717L196.268 187.717C205.689 187.706 213.324 180.071 213.335 170.65L213.335 17.067C213.323 7.645 205.689 0.011 196.267 0ZM196.267 170.65L170.667 170.65C167.75 170.651 165.035 172.14 163.467 174.6L128 230.383L128 179.183C128.001 176.92 127.102 174.749 125.501 173.148C123.901 171.548 121.73 170.649 119.466 170.649L17.066 170.649L17.066 17.067L196.266 17.058L196.266 170.65Z"/>
    <path id="shape4" transform="matrix(1.34277 0 0 2.05322 459.175 71.3659)" fill="#ffffff" d="M8.53155 68.267C10.7955 68.27 12.9665 67.37 14.5645 65.767L43.4645 36.867L71.6775 58.026C75.0725 60.582 79.8315 60.244 82.8315 57.234L110.932 29.134L110.932 34.134C110.932 38.847 114.753 42.667 119.465 42.667C124.177 42.667 127.998 38.847 127.998 34.134L127.998 8.534C127.98 7.512 127.776 6.502 127.396 5.554C127.282 5.276 127.154 5.004 127.01 4.74C126.158 2.995 124.728 1.6 122.964 0.79C122.888 0.757 122.831 0.696 122.753 0.663L122.731 0.65C121.784 0.274 120.777 0.074 119.759 0.059C119.655 0.056 119.569 0 119.465 0L93.8645 0C89.1515 0 85.3315 3.82 85.3315 8.533C85.3315 13.246 89.1515 17.066 93.8645 17.066L98.8645 17.066L75.9975 39.933L47.7855 18.775C44.3925 16.215 39.6295 16.553 36.6315 19.567L2.49855 53.7C0.0585461 56.14 -0.670454 59.81 0.649546 62.998C1.96955 66.187 5.08055 68.266 8.53155 68.267Z"/>
    <path id="shape5" transform="matrix(1.34277 0 0 2.05322 459.175 246.576)" fill="#ffffff" d="M8.532 34.133C10.795 34.134 12.966 33.235 14.567 31.634C16.167 30.034 17.066 27.863 17.066 25.599L17.066 8.533C17.066 3.82 13.246 0 8.533 0C3.82 0 8.33367e-07 3.82 8.33367e-07 8.533L8.33367e-07 25.6C-0.000999167 27.863 0.898001 30.034 2.499 31.635C4.097 33.235 6.268 34.134 8.532 34.133Z"/>
    <path id="shape6" transform="matrix(1.34277 0 0 2.05322 505.005 194.013)" fill="#ffffff" d="M8.534 8.33367e-07C6.271 -0.000999167 4.1 0.898001 2.499 2.499C0.899 4.099 0 6.27 0 8.534L0 51.201C0 55.914 3.82 59.734 8.533 59.734C13.246 59.734 17.066 55.913 17.066 51.201L17.066 8.533C17.067 6.27 16.168 4.099 14.567 2.498C12.968 0.898001 10.797 -0.000999167 8.534 8.33367e-07Z"/>
    <path id="shape7" transform="matrix(1.34277 0 0 2.05322 550.838 229.053)" fill="#ffffff" d="M8.534 8.33367e-07C6.271 -0.000999167 4.1 0.898001 2.499 2.499C0.899 4.099 0 6.27 0 8.534L0 34.134C0 38.847 3.82 42.667 8.533 42.667C13.246 42.667 17.066 38.846 17.066 34.134L17.066 8.534C17.067 6.271 16.168 4.1 14.567 2.499C12.969 0.899001 10.798 8.33367e-07 8.534 8.33367e-07Z"/>
    <path id="shape8" transform="matrix(1.34277 0 0 2.05322 596.672 194.013)" fill="#ffffff" d="M8.534 8.33367e-07C6.271 -0.000999167 4.1 0.898001 2.499 2.499C0.899 4.099 0 6.27 0 8.534L0 51.201C0 55.914 3.821 59.734 8.533 59.734C13.246 59.734 17.066 55.913 17.066 51.201L17.066 8.533C17.067 6.27 16.168 4.099 14.567 2.498C12.968 0.898001 10.797 -0.000999167 8.534 8.33367e-07Z"/>
   </g>
  </g>
 </g><g id="layer1"/><g id="layer2"/><g id="layer3"/><g id="layer4"/><g id="layer5"/><g id="layer6"/><g id="layer7"/><g id="layer8"/><g id="layer9"/><g id="layer10"/><g id="layer11"/><g id="layer12"/><g id="layer13"/><g id="layer14"/><g id="layer15"/>
</svg>
