<?xml version="1.0" standalone="no"?>
<!DOCTYPE svg PUBLIC "-//W3C//DTD SVG 20010904//EN" "http://www.w3.org/TR/2001/REC-SVG-20010904/DTD/svg10.dtd">
<!-- Created using Karbon, part of Calligra: http://www.calligra.org/karbon -->
<svg xmlns="http://www.w3.org/2000/svg" xmlns:xlink="http://www.w3.org/1999/xlink" width="550pt" height="841pt">
<defs/>
<g id="layer0">
  <g id="group0" transform="translate(6.82999, 90.9933)" fill="none">
   <path id="shape0" transform="matrix(0.06875 0 0 -0.105125 0.0421842 482.934)" fill="#ffffff" d="M8654.04 4563.17C8173.54 4434.97 7869.24 3929.57 7989.84 3464.37C8005.14 3406.97 8012.84 3353.37 8005.14 3347.57C7966.84 3315.07 6871.94 2564.67 6848.94 2555.07C6831.74 2547.37 6780.04 2570.37 6730.24 2602.97C6609.64 2685.27 6448.84 2738.87 6288.04 2750.37C6020.04 2771.37 5776.94 2677.67 5572.14 2472.77L5449.64 2352.17L4978.74 2512.97L4507.84 2673.77L4484.84 2832.67C4436.94 3169.57 4299.14 3387.77 4033.04 3548.57C3912.44 3619.37 3713.34 3674.87 3571.74 3674.87C3179.34 3674.87 2815.64 3404.97 2698.84 3025.97C2652.94 2882.37 2649.04 2648.87 2687.34 2522.47L2712.24 2436.37L2120.74 2022.87L1529.14 1611.47L1435.34 1674.67C903.141 2032.67 191.041 1758.87 28.3411 1134.87C-141.959 483.971 484.041 -142.029 1134.84 28.3712C1622.94 154.671 1933.14 658.171 1810.54 1125.27L1785.64 1226.77L1844.94 1270.77C1982.74 1372.27 2939.94 2034.57 2960.94 2042.27C2974.34 2047.97 3024.14 2023.17 3071.94 1990.57C3426.04 1747.47 3914.24 1802.97 4226.24 2120.77L4348.74 2243.27L4819.64 2080.57L5292.44 1919.77L5313.54 1758.97C5351.84 1487.17 5436.04 1316.77 5612.14 1157.87C6111.74 708.071 6908.14 931.971 7105.24 1575.17C7143.54 1703.47 7145.44 1789.57 7116.74 2113.07C7111.04 2166.67 7141.64 2189.67 7694.84 2574.37L8276.84 2978.27L8368.74 2916.97C8897.04 2560.87 9609.14 2836.57 9771.84 3458.67C9942.34 4113.37 9308.74 4739.27 8654.04 4563.17ZM9023.44 4111.47C9188.04 4061.67 9341.24 3851.17 9341.24 3675.07C9341.24 3437.67 9119.14 3215.67 8881.84 3215.67C8761.24 3215.67 8663.64 3259.67 8566.04 3359.27C8370.74 3552.57 8370.74 3797.67 8566.04 3990.97C8699.94 4126.77 8843.54 4163.17 9023.44 4111.47ZM3793.74 3154.27C3900.94 3094.97 3992.84 2972.37 4019.64 2846.07C4063.64 2656.57 3960.34 2444.07 3784.24 2350.27C3722.94 2317.77 3669.34 2308.17 3567.94 2306.27C3451.14 2306.27 3420.54 2313.97 3338.24 2363.67C3012.84 2566.57 3060.64 3054.67 3420.54 3188.67C3521.94 3227.07 3692.34 3211.77 3793.74 3154.27ZM6466.04 2225.87C6519.64 2193.37 6578.94 2133.97 6613.44 2078.47C6665.14 1994.27 6670.84 1967.47 6670.84 1837.27C6670.84 1707.07 6665.14 1680.27 6613.44 1596.07C6533.04 1467.77 6412.44 1395.07 6255.44 1383.57C6150.14 1375.87 6121.44 1381.67 6029.54 1429.57C5650.54 1624.77 5696.44 2145.47 6106.14 2279.47C6199.94 2310.17 6372.24 2285.27 6466.04 2225.87ZM1060.24 1354.87C1165.54 1324.27 1324.44 1165.37 1355.04 1060.07C1408.64 880.171 1370.34 736.571 1234.44 602.571C1041.04 407.371 796.041 407.371 602.641 602.571C407.341 795.871 407.341 1040.97 602.641 1234.27C736.641 1370.27 880.241 1406.57 1060.24 1354.87Z"/>
   <path id="shape1" transform="matrix(0.06875 0 0 -0.105125 547.711 868.356)" fill="#ffffff" d="M178.755 5476.8C100.255 5442.3 19.8548 5344.7 6.45475 5268.1C0.754755 5233.6 -1.24525 4077.4 0.754755 2695.3C6.45475 193.4 6.45475 183.8 46.6548 132.1C67.7548 103.4 109.855 61.3 138.555 40.2C190.255 1.9 213.155 0 915.755 0C1618.25 0 1641.25 1.9 1692.95 40.2C1721.65 61.3 1763.75 103.4 1784.85 132.1C1825.05 183.8 1825.05 189.5 1825.05 2747C1825.05 5304.5 1825.05 5310.2 1784.85 5361.9C1763.75 5390.6 1721.65 5432.7 1692.95 5453.8C1643.15 5492.1 1614.45 5494 938.755 5497.8C383.555 5501.7 224.655 5497.9 178.755 5476.8Z"/>
   <path id="shape2" transform="matrix(0.06875 0 0 -0.105125 182.944 869.212)" fill="#ffffff" d="M191.554 4571.83C164.754 4560.33 122.654 4533.53 99.6544 4510.53C-5.64561 4412.93 0.054393 4527.73 0.054393 2290.03L0.054393 214.934L44.0544 151.734C67.0544 117.234 111.054 69.4339 139.754 48.3339C191.454 10.0339 218.254 8.13389 890.154 2.43389C1556.35 -3.26611 1590.75 -1.36611 1663.55 34.9339C1703.75 56.0339 1759.25 105.734 1782.25 145.934L1828.15 218.634L1828.15 2295.63L1828.15 4372.63L1782.25 4445.33C1759.25 4485.53 1705.65 4533.43 1663.55 4554.43C1594.65 4590.83 1550.65 4592.73 915.054 4590.83C513.154 4591.03 220.254 4583.33 191.554 4571.83Z"/>
   <path id="shape3" transform="matrix(0.06875 0 0 -0.105125 365.231 869.098)" fill="#ffffff" d="M155 3630.85C112.9 3605.95 61.2 3556.25 40.2 3519.85C0 3452.85 0 3433.75 0 1835.35C0 236.953 0 217.853 40.2 150.853C61.2 114.453 112.9 64.753 155 39.853C229.6 -2.24702 233.5 -2.24702 932.2 1.55298C1609.8 7.25298 1636.6 9.15298 1688.3 47.453C1717 68.553 1761 116.353 1785.9 150.853L1828 214.053L1828 1835.45L1828 3456.85L1785.9 3520.05C1761 3554.55 1717 3602.35 1688.3 3623.45C1636.6 3661.75 1609.8 3663.65 932.2 3669.35C233.4 3672.95 229.6 3672.95 155 3630.85Z"/>
   <path id="shape4" transform="matrix(0.06875 0 0 -0.105125 0.177478 868.346)" fill="#ffffff" d="M179.573 2720.2C101.073 2685.7 20.6732 2588.1 7.27315 2511.5C1.57315 2477 -2.32685 1941.1 1.57315 1317C7.27315 206.7 7.27315 183.8 47.4732 132.1C68.5732 103.4 110.673 61.3 139.373 40.2C191.073 1.9 214.073 0 916.573 0C1619.07 0 1642.07 1.9 1693.77 40.2C1722.47 61.3 1764.57 103.4 1785.67 132.1C1825.87 183.8 1825.87 202.9 1825.87 1368.7C1825.87 2534.5 1825.87 2553.6 1785.67 2605.3C1764.57 2634 1722.47 2676.1 1693.77 2697.2C1643.97 2735.5 1615.27 2737.4 939.573 2741.2C384.373 2745.1 225.473 2741.3 179.573 2720.2Z"/>
  </g>
 </g>
</svg>
