<?xml version="1.0" encoding="utf-8"?>
<!-- Svg Vector Icons : http://www.onlinewebfonts.com/icon -->
<!DOCTYPE svg PUBLIC "-//W3C//DTD SVG 1.1//EN" "http://www.w3.org/Graphics/SVG/1.1/DTD/svg11.dtd">
<svg version="1.1" xmlns="http://www.w3.org/2000/svg" xmlns:xlink="http://www.w3.org/1999/xlink" x="0px" y="0px" viewBox="0 0 1000 1000" enable-background="new 0 0 1000 1000" xml:space="preserve">
<metadata> Svg Vector Icons : http://www.onlinewebfonts.com/icon </metadata>
<g><g transform="translate(0.000000,511.000000) scale(0.100000,-0.100000)"><path d="M4318.1,4974.4C3234,4810.3,2291,4336.5,1532.9,3578.3C767.8,2815.6,294,1865.6,136.8,779.3C92.9,492.7,88.3-173,122.9-466.5c136.4-1102.5,626.4-2108,1409.9-2889.2c940.7-938.4,2135.7-1433,3467-1433c1331.3,0,2528.6,494.6,3467,1433c938.4,938.4,1433,2135.7,1433,3467c0,1331.3-494.6,2526.3-1433,3467c-781.2,783.5-1786.7,1273.6-2889.2,1409.9C5307.3,5020.6,4570,5013.7,4318.1,4974.4z M4815,3513.6V2360.3l-240.4-46.2c-829.8-164.1-1486.2-765-1738.1-1590.2c-57.8-191.8-64.7-238.1-64.7-601c0-476.2,34.7-633.3,228.8-1017c226.5-453,540.9-767.4,993.9-993.9c325.9-164.1,545.5-221.9,913-235.8c307.4-13.9,564,20.8,813.6,106.3l124.8,43.9L6359-2999.8c282-563.9,513.1-1030.9,513.1-1035.5c0-18.5-409.1-171-612.5-228.8c-1382.2-397.6-2833.7-127.1-4003.3,742c-261.2,196.5-693.4,628.7-889.9,889.9c-605.6,813.6-919.9,1752-919.9,2743.6c0,1363.7,621.8,2671.9,1675.7,3524.8c755.8,612.5,1701.2,980,2630.3,1026.2l62.4,2.3V3513.6z M5473.7,4641.6c2050.2-228.8,3688.9-1779.8,4019.5-3802.2c18.5-113.3,39.3-284.3,48.5-374.4l13.9-168.7H8402.2H7248.9l-46.2,240.4c-178,903.7-873.7,1599.5-1777.4,1777.4l-240.4,46.2v1153.4c0,1081.7,2.3,1151.1,41.6,1151.1C5247.2,4664.7,5360.5,4653.1,5473.7,4641.6z M5448.3,1948.8c372.1-99.4,605.6-235.8,880.6-508.5c275.1-277.4,409.1-508.5,513.1-892.2c55.5-203.4,55.5-670.3,0-873.7c-104-383.7-238.1-614.8-513.1-892.2c-277.4-275.1-508.5-409.1-892.2-513.1c-203.4-55.5-670.3-55.5-873.7,0c-383.7,104-614.8,238.1-892.2,513.1c-275.1,277.4-409.1,508.5-513.1,892.2c-55.5,205.7-55.5,668,2.3,887.6c161.8,621.8,631,1134.9,1227.3,1340.6C4697.1,2008.9,5147.8,2029.7,5448.3,1948.8z M9553.3-112.9c0-23.1-11.6-134.1-23.1-249.6c-80.9-723.4-321.3-1400.7-709.6-1999.3c-154.9-238.1-443.8-600.9-478.5-600.9c-13.9,0-388.3,362.9-832.1,806.6l-804.4,804.4l94.8,124.8c198.8,261.2,360.6,640.3,418.3,987l27.7,166.4h1153.4C9484-73.6,9553.3-75.9,9553.3-112.9z M7269.7-2401.2c443.8-443.8,804.4-815.9,804.4-829.8c0-57.8-788.2-633.3-866.8-633.3c-11.6,0-254.2,462.3-536.2,1026.2l-513.1,1026.3l113.2,74c60.1,39.3,124.8,87.8,138.7,106.3c16.2,16.2,34.7,32.4,43.9,32.4C6460.7-1599.1,6828.2-1959.7,7269.7-2401.2z"/></g></g>
</svg>